<svg width="24" height="24" viewBox="0 0 24 24" fill="currentColor" xmlns="http://www.w3.org/2000/svg">
<path fill-rule="evenodd" clip-rule="evenodd" d="M13.177 21.9415C13.177 21.9415 13.6101 21.8923 13.832 21.6486C14.0351 21.4254 14.028 21.0041 14.028 21.0041C14.028 21.0041 14.001 19.0369 14.8943 18.7464C15.7747 18.4608 16.9051 20.6488 18.1048 21.4902C19.011 22.1263 19.6989 21.9871 19.6989 21.9871L22.9046 21.9415C22.9046 21.9415 24.5809 21.8359 23.7862 20.488C23.7204 20.3776 23.3225 19.4906 21.4033 17.6686C19.3925 15.7614 19.6625 16.0699 22.0829 12.7704C23.5573 10.7612 24.1465 9.53452 23.9622 9.01001C23.7873 8.50831 22.7027 8.64154 22.7027 8.64154L19.0943 8.66434C19.0943 8.66434 18.8267 8.62713 18.6283 8.74836C18.4346 8.86718 18.309 9.14444 18.309 9.14444C18.309 9.14444 17.7385 10.6988 16.9767 12.0214C15.3697 14.8108 14.7276 14.9584 14.4647 14.7856C13.8531 14.3811 14.0057 13.1629 14.0057 12.2975C14.0057 9.59333 14.4072 8.4663 13.2251 8.17464C12.8331 8.07742 12.5443 8.01381 11.5407 8.003C10.253 7.9898 9.16363 8.0078 8.54619 8.31627C8.13535 8.52151 7.81841 8.98001 8.0121 9.00641C8.25039 9.03882 8.79035 9.15524 9.07677 9.55372C9.44653 10.0686 9.43362 11.2233 9.43362 11.2233C9.43362 11.2233 9.64608 14.4063 8.93708 14.8012C8.45111 15.0725 7.78437 14.5192 6.35111 11.9878C5.61746 10.6916 5.06341 9.25846 5.06341 9.25846C5.06341 9.25846 4.95659 8.99081 4.76525 8.84678C4.53401 8.67274 4.2112 8.61873 4.2112 8.61873L0.78241 8.64154C0.78241 8.64154 0.267094 8.65594 0.0781054 8.88519C-0.0897538 9.08803 0.0651932 9.50931 0.0651932 9.50931C0.0651932 9.50931 2.74977 15.9318 5.79001 19.1689C8.57789 22.1359 11.7426 21.9415 11.7426 21.9415H13.177Z"/>
</svg>
