<svg width="26" height="26" fill="none" xmlns="http://www.w3.org/2000/svg"><path d="M.88 13.44C.88 6.547 6.467.96 13.36.96c6.892 0 12.48 5.587 12.48 12.48 0 6.893-5.588 12.48-12.48 12.48C6.467 25.92.88 20.332.88 13.44Z" fill="#fff"/><path fill-rule="evenodd" clip-rule="evenodd" d="M16.099 5.952c.13.887-.23 1.757-.707 2.372-.51.66-1.389 1.17-2.24 1.143-.155-.85.242-1.725.727-2.313.53-.65 1.441-1.148 2.22-1.202Zm2.558 12.491c.438-.673.602-1.012.943-1.771-2.478-.943-2.875-4.466-.423-5.818-.748-.938-1.799-1.482-2.791-1.482-.715 0-1.205.187-1.65.356-.372.142-.712.271-1.126.271-.447 0-.843-.142-1.257-.29-.456-.164-.934-.335-1.527-.335-1.114 0-2.3.68-3.05 1.843-1.057 1.639-.877 4.718.836 7.342.613.94 1.43 1.994 2.5 2.003.445.005.74-.128 1.06-.271.366-.164.763-.343 1.452-.346.693-.004 1.084.176 1.445.343.312.143.6.277 1.041.272 1.07-.009 1.934-1.178 2.547-2.117Z" fill="#0B0B0A"/></svg>