<svg width="24" height="24" fill="currentColor" xmlns="http://www.w3.org/2000/svg"><path d="m8.97 15.62-.485 5.16s-.203 1.58 1.377 0c1.58-1.582 3.094-2.8 3.094-2.8"/><path d="M5.663 14.075.461 12.38s-.621-.252-.421-.824c.04-.118.124-.218.373-.391 1.152-.803 21.333-8.057 21.333-8.057s.57-.192.906-.064a.492.492 0 0 1 .335.365c.036.15.051.305.045.459-.002.134-.018.257-.03.452-.123 1.983-3.801 16.784-3.801 16.784s-.22.866-1.009.895a1.442 1.442 0 0 1-1.052-.407c-1.547-1.33-6.895-4.925-8.077-5.715a.226.226 0 0 1-.097-.16c-.016-.083.074-.187.074-.187s9.312-8.277 9.56-9.146c.02-.067-.053-.1-.15-.07-.62.227-11.34 6.998-12.524 7.745a.57.57 0 0 1-.263.016Z"/></svg>