<svg width="24" height="24" fill="currentColor" xmlns="http://www.w3.org/2000/svg"><path fill-rule="evenodd" clip-rule="evenodd" d="M12 2c-2.716 0-3.056.012-4.123.06-1.064.049-1.791.218-2.427.465a4.902 4.902 0 0 0-1.772 1.153A4.902 4.902 0 0 0 2.525 5.45c-.247.636-.416 1.363-.465 2.427C2.011 8.944 2 9.284 2 12s.011 3.056.06 4.123c.049 1.064.218 1.791.465 2.427a4.901 4.901 0 0 0 1.153 1.772 4.901 4.901 0 0 0 1.772 1.153c.636.247 1.363.416 2.427.465 1.067.048 1.407.06 4.123.06s3.056-.012 4.123-.06c1.064-.049 1.791-.218 2.427-.465a4.902 4.902 0 0 0 1.772-1.153 4.902 4.902 0 0 0 1.153-1.772c.247-.636.416-1.363.465-2.427.048-1.067.06-1.407.06-4.123s-.012-3.056-.06-4.123c-.049-1.064-.218-1.791-.465-2.427a4.903 4.903 0 0 0-1.153-1.772 4.902 4.902 0 0 0-1.772-1.153c-.636-.247-1.363-.416-2.427-.465C15.056 2.012 14.716 2 12 2Zm.014 4.88a5.139 5.139 0 1 0 0 10.279 5.139 5.139 0 0 0 0-10.278Zm.01 8.476a3.336 3.336 0 1 1 0-6.672 3.336 3.336 0 0 1 0 6.672Zm6.486-8.712a1.19 1.19 0 1 1-2.381 0 1.19 1.19 0 0 1 2.38 0Z"/></svg>