<svg width="24" height="24" fill="currentColor" xmlns="http://www.w3.org/2000/svg"><path fill-rule="evenodd" clip-rule="evenodd" d="M13.177 21.942s.433-.05.655-.293c.203-.224.196-.645.196-.645s-.027-1.967.866-2.258c.88-.285 2.011 1.903 3.21 2.744.907.636 1.595.497 1.595.497l3.206-.045s1.676-.106.881-1.454c-.066-.11-.463-.997-2.383-2.82-2.01-1.907-1.74-1.598.68-4.898 1.474-2.009 2.064-3.235 1.88-3.76-.176-.502-1.26-.368-1.26-.368l-3.609.022s-.267-.037-.466.084c-.193.12-.319.396-.319.396s-.57 1.555-1.332 2.877c-1.607 2.79-2.25 2.937-2.512 2.765-.612-.405-.46-1.623-.46-2.489 0-2.704.402-3.83-.78-4.122-.392-.098-.68-.161-1.684-.172-1.288-.013-2.377.005-2.995.313-.41.206-.728.664-.534.69.238.033.778.15 1.065.548.37.515.357 1.67.357 1.67s.212 3.182-.497 3.577c-.486.271-1.153-.282-2.586-2.813-.734-1.296-1.288-2.73-1.288-2.73s-.106-.267-.298-.411c-.231-.174-.554-.228-.554-.228l-3.429.023s-.515.014-.704.243c-.168.203-.013.624-.013.624s2.685 6.423 5.725 9.66c2.788 2.967 5.953 2.773 5.953 2.773h1.434Z"/></svg>