<svg width="196" height="232" fill="currentColor" xmlns="http://www.w3.org/2000/svg"><g filter="url(#a)"><path d="M1 223.936v-1.95l10.306-5.988 10.305 5.849v2.089l-10.166 5.988L1 223.936Z"/></g><path d="M1 221.985v-1.949l10.306-5.989 10.305 5.85v2.088l-10.166 5.989L1 221.985Z"/><path d="M1 220.036v-1.95l10.306-5.988 10.305 5.849v2.089l-10.166 5.988L1 220.036Z"/><path d="M1 217.938v-1.95L11.306 210l10.305 5.849v2.089l-10.166 5.989L1 217.938Z"/><path stroke="#fff" d="m18.838 214.502 100.694-78.317"/><path d="M1 216.938v-1.95L11.306 209l10.305 5.849v2.089l-10.166 5.989L1 216.938Z"/><path d="M130.649 122.143h3.285l2.329 9.586h.014l2.329-9.586h3.285V135h-2.142v-9.186L137.52 135h-2.5l-2.229-9.186V135h-2.142v-12.857Zm16.981 5.186h-1.786c-.238 0-.357.119-.357.357v4.985c0 .239.119.358.357.358h1.786c.238 0 .357-.119.357-.358v-4.985c0-.238-.119-.357-.357-.357Zm-2.858-1.972h3.929c.4 0 .738.138 1.014.414.276.277.415.615.415 1.015v6.785c0 .4-.139.739-.415 1.015a1.379 1.379 0 0 1-1.014.414h-3.929c-.4 0-.738-.138-1.014-.414a1.381 1.381 0 0 1-.414-1.015v-6.785c0-.4.138-.738.414-1.015a1.379 1.379 0 0 1 1.014-.414Zm8.223 0h4.286v1.972h-3.215c-.238 0-.357.119-.357.357v4.985c0 .239.119.358.357.358h3.572V135h-4.643c-.4 0-.738-.138-1.014-.414a1.382 1.382 0 0 1-.415-1.015v-6.785c0-.4.139-.738.415-1.015a1.379 1.379 0 0 1 1.014-.414Zm6.071 0h2.143v3.829h.615l1.828-3.829h2.372l-2.286 4.814v.015l2.286 4.814h-2.372l-1.828-3.829h-.615V135h-2.143v-9.643Zm12.228 1.972h-2.057v1.857h2.057c.238 0 .357-.119.357-.357v-1.143c0-.238-.119-.357-.357-.357Zm.086 3.842h-2.143v1.858h2.143c.238 0 .357-.119.357-.358v-1.142c0-.239-.119-.358-.357-.358Zm-4.286-5.814h5.271c.4 0 .738.138 1.015.414.276.277.414.615.414 1.015v2.314c0 .276-.1.514-.3.714a1.21 1.21 0 0 1-.757.357v.015c.314.038.581.162.8.371.228.2.343.433.343.7v2.314c0 .4-.139.739-.415 1.015a1.379 1.379 0 0 1-1.014.414h-5.357v-9.643Zm12.865 5.814h-2.143c-.238 0-.357.119-.357.358v1.142c0 .239.119.358.357.358h1.786c.238 0 .357-.119.357-.358v-1.5Zm-4.285-5.814h5c.4 0 .738.138 1.014.414.276.277.414.615.414 1.015V135h-1.857l-.2-.643h-.014a.851.851 0 0 1-.372.457 1.015 1.015 0 0 1-.585.186h-2.329c-.4 0-.738-.138-1.014-.414a1.382 1.382 0 0 1-.415-1.015v-2.957c0-.4.139-.738.415-1.014a1.379 1.379 0 0 1 1.014-.414h3.214v-1.5c0-.238-.119-.357-.357-.357h-3.928v-1.972Z" fill="#fff"/><defs><filter id="a" x="0" y="215.998" width="22.611" height="15.927" filterUnits="userSpaceOnUse" color-interpolation-filters="sRGB"><feFlood flood-opacity="0" result="BackgroundImageFix"/><feColorMatrix in="SourceAlpha" values="0 0 0 0 0 0 0 0 0 0 0 0 0 0 0 0 0 0 127 0" result="hardAlpha"/><feOffset dy="1"/><feGaussianBlur stdDeviation=".5"/><feComposite in2="hardAlpha" operator="out"/><feColorMatrix values="0 0 0 0 0 0 0 0 0 0 0 0 0 0 0 0 0 0 0.15 0"/><feBlend in2="BackgroundImageFix" result="effect1_dropShadow_7610_131"/><feBlend in="SourceGraphic" in2="effect1_dropShadow_7610_131" result="shape"/></filter></defs></svg>