<svg width="26" height="25" fill="none" xmlns="http://www.w3.org/2000/svg"><path d="M.92 12.48C.92 5.587 6.507 0 13.4 0c6.892 0 12.48 5.587 12.48 12.48 0 6.892-5.588 12.48-12.48 12.48C6.507 24.96.92 19.372.92 12.48Z" fill="#F68634"/><path d="m14.75 15.309 1.865 1.8a.92.92 0 0 1 0 1.335c-.382.368-1 .368-1.382 0l-1.834-1.77-1.832 1.77a.994.994 0 0 1-.691.276c-.25 0-.5-.092-.691-.276a.92.92 0 0 1 0-1.335l1.865-1.8a6.388 6.388 0 0 1-1.938-.774.925.925 0 0 1-.306-1.302.997.997 0 0 1 1.348-.296c1.366.829 3.125.83 4.492 0a.997.997 0 0 1 1.347.296.925.925 0 0 1-.306 1.301 6.377 6.377 0 0 1-1.937.775Z" fill="#fff"/><path fill-rule="evenodd" clip-rule="evenodd" d="M10.055 9.46c0 1.776 1.497 3.22 3.337 3.22s3.336-1.444 3.336-3.22c0-1.775-1.496-3.22-3.337-3.22-1.84 0-3.336 1.445-3.336 3.22Zm4.718 0c0-.735-.62-1.333-1.381-1.333-.762 0-1.382.598-1.382 1.334 0 .734.62 1.333 1.382 1.333.761 0 1.38-.599 1.38-1.333Z" fill="#fff"/></svg>