<svg width="26" height="25" fill="none" xmlns="http://www.w3.org/2000/svg"><path d="M.96 12.48C.96 5.587 6.547 0 13.44 0c6.893 0 12.48 5.587 12.48 12.48 0 6.892-5.588 12.48-12.48 12.48C6.547 24.96.96 19.372.96 12.48Z" fill="#4C6C91"/><path d="M14.093 16.576s.24-.027.363-.156c.113-.12.11-.344.11-.344s-.016-1.047.48-1.202c.488-.152 1.115 1.013 1.78 1.461.503.339.884.265.884.265l1.779-.024s.93-.057.489-.774c-.037-.06-.258-.531-1.322-1.502-1.115-1.015-.966-.851.377-2.608.818-1.07 1.144-1.723 1.042-2.002-.097-.267-.698-.196-.698-.196l-2.002.012s-.148-.02-.258.044c-.108.064-.177.211-.177.211s-.317.828-.74 1.532c-.89 1.486-1.247 1.564-1.393 1.472-.339-.215-.254-.864-.254-1.325 0-1.44.222-2.04-.433-2.195-.218-.052-.378-.086-.935-.091-.714-.007-1.318.002-1.66.166-.228.11-.404.354-.297.368.132.017.432.08.59.291.206.275.199.89.199.89s.117 1.694-.276 1.905c-.27.144-.64-.15-1.434-1.499a12.43 12.43 0 0 1-.714-1.453s-.06-.142-.166-.22c-.128-.092-.307-.12-.307-.12l-1.902.012s-.286.007-.39.13c-.094.107-.008.332-.008.332s1.49 3.42 3.176 5.143c1.546 1.58 3.301 1.477 3.301 1.477h.796Z" fill="#fff"/></svg>