<svg width="26" height="26" fill="none" xmlns="http://www.w3.org/2000/svg"><path d="M.92 13.44C.92 6.547 6.507.96 13.4.96c6.892 0 12.48 5.587 12.48 12.48 0 6.893-5.588 12.48-12.48 12.48C6.507 25.92.92 20.332.92 13.44Z" fill="#55ACEE"/><path d="m13.026 11.104.027.432-.437-.053c-1.589-.203-2.977-.89-4.155-2.045l-.576-.573-.149.423c-.314.943-.113 1.94.542 2.61.349.37.27.422-.332.202-.21-.07-.393-.124-.41-.097-.062.062.148.864.314 1.18.227.441.69.873 1.196 1.129l.427.203-.506.008c-.489 0-.506.01-.454.194.175.573.864 1.181 1.633 1.446l.54.185-.47.282a4.915 4.915 0 0 1-2.34.652c-.393.009-.716.044-.716.07 0 .088 1.065.582 1.685.776 1.86.573 4.068.326 5.726-.652 1.179-.697 2.357-2.08 2.907-3.42.297-.714.594-2.018.594-2.644 0-.405.026-.458.515-.943.288-.282.559-.59.611-.678.087-.168.079-.168-.367-.018-.741.264-.846.23-.48-.167.271-.282.594-.793.594-.943 0-.027-.131.017-.28.097a4.87 4.87 0 0 1-.768.3l-.471.15-.428-.292c-.235-.158-.567-.335-.742-.387-.445-.124-1.126-.106-1.527.035-1.092.396-1.781 1.419-1.703 2.538Z" fill="#fff"/></svg>