<svg width="189" height="28" fill="none" xmlns="http://www.w3.org/2000/svg"><path d="m54.32 23.13 2.496-3.744 2.472 3.744c.216.312.552.48.936.48h2.208V6.81h-2.808v12.6l-1.416-2.136-.48-.696a1.099 1.099 0 0 0-1.848 0l-.48.696-1.416 2.136V6.81H51.2v16.8h2.184c.384 0 .72-.168.936-.48ZM72.353 6.858a.853.853 0 0 0-.24-.048h-6.168c-.624 0-1.104.504-1.104 1.128V23.61h2.784v-4.08a8.114 8.114 0 0 0 2.808-1.176v5.256h2.808V7.938c0-.528-.384-.96-.888-1.08Zm-4.728 9.768V9.618h2.808v4.8a5.246 5.246 0 0 1-2.808 2.208Zm15.532-9.768a.853.853 0 0 0-.24-.048h-7.272v16.824h2.784V19.53c.864-.168 1.656-.504 2.4-.912l.408.768v4.248h2.808v-4.248l-1.272-2.376c.504-.576.936-1.2 1.272-1.872v-7.2a1.153 1.153 0 0 0-.888-1.08Zm-4.728 2.76h2.808v4.8a5.246 5.246 0 0 1-2.808 2.208V9.618Zm15.533-2.76a.853.853 0 0 0-.24-.048h-6.168c-.624 0-1.104.504-1.104 1.128V23.61h2.784v-4.08a8.114 8.114 0 0 0 2.808-1.176 8.024 8.024 0 0 0 2.784-3.216v-7.2c0-.528-.36-.96-.864-1.08Zm-4.728 9.768V9.618h2.808v4.8a5.246 5.246 0 0 1-2.808 2.208Zm10.805-9.816h-2.784v15.696c0 .624.48 1.104 1.104 1.104h7.272v-2.784h-5.592V6.81Zm15.532.048a.853.853 0 0 0-.24-.048h-6.168c-.624 0-1.104.504-1.104 1.128V23.61h2.784v-4.08a8.114 8.114 0 0 0 2.808-1.176v5.256h2.808V7.938c0-.528-.384-.96-.888-1.08Zm-4.728 9.768V9.618h2.808v4.8a5.246 5.246 0 0 1-2.808 2.208Zm15.221-9.816-2.808 5.616-2.808-5.616h-2.784l4.2 8.4v8.4h2.784v-8.4l4.2-8.4h-2.784Zm4.003 14.016v2.784h1.68c.6 0 1.104-.48 1.104-1.104v-1.68h-2.784Zm10.795 0h-2.808V9.618h2.808v2.856a5.076 5.076 0 0 0 2.784-2.448V7.938c0-.624-.48-1.128-1.104-1.128h-7.272v16.8h7.272c.624 0 1.104-.48 1.104-1.104v-7.104h-2.784v5.424Zm7.997-14.016h-2.784v15.696c0 .624.48 1.104 1.104 1.104h7.272v-2.784h-5.592V6.81Zm8.021 1.128v14.568c0 .624.48 1.104 1.104 1.104h6.168c.624 0 1.104-.48 1.104-1.104V7.938c0-.624-.48-1.128-1.104-1.128h-6.168c-.624 0-1.104.504-1.104 1.128Zm5.592 12.888h-2.808V9.618h2.808v11.208ZM173.276 6.81v14.016h-2.808V6.81h-2.784v15.696c0 .624.48 1.104 1.104 1.104h6.168c.624 0 1.104-.48 1.104-1.104V6.81h-2.784Zm5.213 0v16.8h7.272c.624 0 1.104-.48 1.104-1.104V7.938c0-.624-.48-1.128-1.104-1.128h-7.272Zm5.592 14.016h-2.808V9.618h2.808v11.208ZM19.263 16.088h-5.522a.15.15 0 0 0-.138.093L8.41 27.254a.142.142 0 0 0 .138.198h15.895c.105 0 .171-.11.138-.203L19.39 16.176a.139.139 0 0 0-.127-.088ZM8.482 24.298l4.503-9.532a.134.134 0 0 0 .006-.093L6.476.77C6.432.606 6.19.628 6.19.803l2.017 23.44c-.011.154.215.203.275.055ZM.408 9.265 4.658.063a.146.146 0 0 1 .264.093l2.238 25.47c-.006.153-.22.197-.281.054L.159 11.322a2.119 2.119 0 0 1 .249-2.057ZM24.797 24.243 26.814.803c0-.17-.242-.197-.287-.033l-6.514 13.903a.133.133 0 0 0 .005.093l4.503 9.532c.06.148.287.099.276-.055ZM32.838 11.322 26.12 25.68c-.061.148-.276.105-.282-.055L28.076.155c-.005-.147.177-.208.265-.092l4.255 9.202c.435.598.523 1.377.242 2.057Z" fill="#57D6FF"/></svg>