<svg width="26" height="25" fill="none" xmlns="http://www.w3.org/2000/svg"><path d="M.84 12.48C.84 5.587 6.427 0 13.32 0 20.212 0 25.8 5.587 25.8 12.48c0 6.892-5.588 12.48-12.48 12.48C6.427 24.96.84 19.372.84 12.48Z" fill="#fff"/><path d="M13.32 9.163c1.015 0 1.7.439 2.09.805l1.527-1.49c-.938-.871-2.157-1.406-3.618-1.406a5.404 5.404 0 0 0-4.83 2.98l1.748 1.358c.438-1.303 1.652-2.247 3.082-2.247Z" fill="#EA4335"/><path d="M18.512 12.6c0-.444-.037-.769-.115-1.105H13.32v2.007h2.98c-.06.498-.384 1.25-1.105 1.754l1.706 1.322c1.022-.943 1.61-2.331 1.61-3.978Z" fill="#4285F4"/><path d="M10.243 13.55a3.329 3.329 0 0 1-.18-1.07c0-.373.066-.733.174-1.07l-1.749-1.357a5.413 5.413 0 0 0-.576 2.427c0 .871.21 1.695.576 2.428l1.755-1.358Z" fill="#FBBC05"/><path d="M13.32 17.888c1.46 0 2.686-.48 3.581-1.31l-1.707-1.322c-.456.319-1.069.54-1.874.54-1.43 0-2.644-.942-3.077-2.246l-1.748 1.358a5.395 5.395 0 0 0 4.825 2.98Z" fill="#34A853"/></svg>