<svg width="25" height="25" fill="none" xmlns="http://www.w3.org/2000/svg"><path d="M0 12.48C0 5.587 5.587 0 12.48 0c6.892 0 12.48 5.587 12.48 12.48 0 6.892-5.588 12.48-12.48 12.48C5.587 24.96 0 19.372 0 12.48Z" fill="#005FF9"/><path fill-rule="evenodd" clip-rule="evenodd" d="M5.2 12.46c0-4.004 3.266-7.26 7.28-7.26s7.28 3.256 7.28 7.26a6.41 6.41 0 0 1-.153 1.486l-.002.008c0 .001-.053.214-.082.306-.18.574-.506 1.052-.942 1.382a2.463 2.463 0 0 1-1.673.49 2.368 2.368 0 0 1-1.82-1.085 3.681 3.681 0 0 1-6.291-2.588 3.681 3.681 0 0 1 3.683-3.672 3.681 3.681 0 0 1 3.682 3.672v1.184c.004.69.468.973.865 1.005.395.03.921-.2 1.104-.948.09-.41.136-.828.136-1.24 0-3.183-2.596-5.772-5.787-5.772s-5.787 2.59-5.787 5.771c0 3.183 2.596 5.771 5.787 5.771 1.11 0 2.191-.316 3.124-.915l.017-.01.98 1.137-.02.014a7.252 7.252 0 0 1-4.1 1.263c-4.015 0-7.28-3.257-7.28-7.26Zm7.28 2.183a2.19 2.19 0 0 0 2.19-2.184 2.19 2.19 0 0 0-4.38 0 2.19 2.19 0 0 0 2.19 2.184Z" fill="#FF9E00"/></svg>