<svg width="26" height="26" fill="none" xmlns="http://www.w3.org/2000/svg"><path d="M13.44 25.92c6.893 0 12.48-5.588 12.48-12.48C25.92 6.547 20.332.96 13.44.96 6.547.96.96 6.547.96 13.44c0 6.893 5.587 12.48 12.48 12.48Z" fill="#F1F1F1"/><path fill-rule="evenodd" clip-rule="evenodd" d="m6.396 9.389.976-2.605h13.346V15.9l-3.907 3.906h-2.93L11.93 21.76H9.975v-1.954h-3.58V9.389Zm13.02-1.304H8.673v9.442h2.932v1.952l1.951-1.952h3.58l2.28-2.279V8.085Z" fill="#6441A5"/><path fill-rule="evenodd" clip-rule="evenodd" d="M13.556 14.598h-1.302V10.69h1.303v3.907Zm3.58 0h-1.301V10.69h1.302v3.907Z" fill="#6441A5"/></svg>