<svg width="195" height="104" viewBox="0 0 195 104" fill="none" xmlns="http://www.w3.org/2000/svg">
<line x1="17.8385" y1="95.5018" x2="118.532" y2="17.1847" stroke="white"/>
<path d="M0 97.9381V95.9884L10.3056 90L20.6113 95.8491V97.9381L10.4449 103.927L0 97.9381Z" fill="#45D1FB"/>
<path d="M129.649 3.14286H132.934L135.263 12.7286H135.277L137.606 3.14286H140.891V16H138.749V6.81429L136.52 16H134.02L131.791 6.81429V16H129.649V3.14286ZM146.63 8.32857H144.844C144.606 8.32857 144.487 8.44762 144.487 8.68571V13.6714C144.487 13.9095 144.606 14.0286 144.844 14.0286H146.63C146.868 14.0286 146.987 13.9095 146.987 13.6714V8.68571C146.987 8.44762 146.868 8.32857 146.63 8.32857ZM143.772 6.35714H147.701C148.101 6.35714 148.439 6.49524 148.715 6.77143C148.991 7.04762 149.13 7.38571 149.13 7.78571V14.5714C149.13 14.9714 148.991 15.3095 148.715 15.5857C148.439 15.8619 148.101 16 147.701 16H143.772C143.372 16 143.034 15.8619 142.758 15.5857C142.482 15.3095 142.344 14.9714 142.344 14.5714V7.78571C142.344 7.38571 142.482 7.04762 142.758 6.77143C143.034 6.49524 143.372 6.35714 143.772 6.35714ZM151.995 6.35714H156.281V8.32857H153.066C152.828 8.32857 152.709 8.44762 152.709 8.68571V13.6714C152.709 13.9095 152.828 14.0286 153.066 14.0286H156.638V16H151.995C151.595 16 151.257 15.8619 150.981 15.5857C150.705 15.3095 150.566 14.9714 150.566 14.5714V7.78571C150.566 7.38571 150.705 7.04762 150.981 6.77143C151.257 6.49524 151.595 6.35714 151.995 6.35714ZM158.066 6.35714H160.209V10.1857H160.824L162.652 6.35714H165.024L162.738 11.1714V11.1857L165.024 16H162.652L160.824 12.1714H160.209V16H158.066V6.35714ZM170.294 8.32857H168.237V10.1857H170.294C170.532 10.1857 170.651 10.0667 170.651 9.82857V8.68571C170.651 8.44762 170.532 8.32857 170.294 8.32857ZM170.38 12.1714H168.237V14.0286H170.38C170.618 14.0286 170.737 13.9095 170.737 13.6714V12.5286C170.737 12.2905 170.618 12.1714 170.38 12.1714ZM166.094 6.35714H171.365C171.765 6.35714 172.103 6.49524 172.38 6.77143C172.656 7.04762 172.794 7.38571 172.794 7.78571V10.1C172.794 10.3762 172.694 10.6143 172.494 10.8143C172.303 11.0143 172.051 11.1333 171.737 11.1714V11.1857C172.051 11.2238 172.318 11.3476 172.537 11.5571C172.765 11.7571 172.88 11.9905 172.88 12.2571V14.5714C172.88 14.9714 172.741 15.3095 172.465 15.5857C172.189 15.8619 171.851 16 171.451 16H166.094V6.35714ZM178.959 12.1714H176.816C176.578 12.1714 176.459 12.2905 176.459 12.5286V13.6714C176.459 13.9095 176.578 14.0286 176.816 14.0286H178.602C178.84 14.0286 178.959 13.9095 178.959 13.6714V12.1714ZM174.674 6.35714H179.674C180.074 6.35714 180.412 6.49524 180.688 6.77143C180.964 7.04762 181.102 7.38571 181.102 7.78571V16H179.245L179.045 15.3571H179.031C178.974 15.5381 178.85 15.6905 178.659 15.8143C178.478 15.9381 178.283 16 178.074 16H175.745C175.345 16 175.007 15.8619 174.731 15.5857C174.455 15.3095 174.316 14.9714 174.316 14.5714V11.6143C174.316 11.2143 174.455 10.8762 174.731 10.6C175.007 10.3238 175.345 10.1857 175.745 10.1857H178.959V8.68571C178.959 8.44762 178.84 8.32857 178.602 8.32857H174.674V6.35714Z" fill="white"/>
</svg>
