<svg width="195" height="104" fill="none" xmlns="http://www.w3.org/2000/svg"><path stroke="#fff" d="m17.838 95.502 100.694-78.317"/><path d="M0 97.938v-1.95L10.306 90l10.305 5.85v2.088l-10.166 5.989L0 97.938Z" fill="#45D1FB"/><path d="M129.649 3.143h3.285l2.329 9.586h.014l2.329-9.586h3.285V16h-2.142V6.814L136.52 16h-2.5l-2.229-9.186V16h-2.142V3.143Zm16.981 5.186h-1.786c-.238 0-.357.119-.357.357v4.985c0 .239.119.358.357.358h1.786c.238 0 .357-.12.357-.358V8.686c0-.238-.119-.357-.357-.357Zm-2.858-1.972h3.929c.4 0 .738.138 1.014.414.276.277.415.615.415 1.015v6.785c0 .4-.139.739-.415 1.015a1.378 1.378 0 0 1-1.014.414h-3.929c-.4 0-.738-.138-1.014-.414a1.38 1.38 0 0 1-.414-1.015V7.786c0-.4.138-.738.414-1.015a1.378 1.378 0 0 1 1.014-.414Zm8.223 0h4.286V8.33h-3.215c-.238 0-.357.119-.357.357v4.985c0 .239.119.358.357.358h3.572V16h-4.643c-.4 0-.738-.138-1.014-.414a1.38 1.38 0 0 1-.415-1.015V7.786c0-.4.139-.738.415-1.015a1.378 1.378 0 0 1 1.014-.414Zm6.071 0h2.143v3.829h.615l1.828-3.829h2.372l-2.286 4.814v.015L165.024 16h-2.372l-1.828-3.829h-.615V16h-2.143V6.357Zm12.228 1.972h-2.057v1.857h2.057c.238 0 .357-.12.357-.357V8.686c0-.238-.119-.357-.357-.357Zm.086 3.842h-2.143v1.858h2.143c.238 0 .357-.12.357-.358V12.53c0-.239-.119-.358-.357-.358Zm-4.286-5.814h5.271c.4 0 .738.138 1.015.414.276.277.414.615.414 1.015V10.1c0 .276-.1.514-.3.714a1.21 1.21 0 0 1-.757.357v.015c.314.038.581.162.8.371.228.2.343.434.343.7v2.314c0 .4-.139.739-.415 1.015a1.378 1.378 0 0 1-1.014.414h-5.357V6.357Zm12.865 5.814h-2.143c-.238 0-.357.12-.357.358v1.142c0 .239.119.358.357.358h1.786c.238 0 .357-.12.357-.358v-1.5Zm-4.285-5.814h5c.4 0 .738.138 1.014.414.276.277.414.615.414 1.015V16h-1.857l-.2-.643h-.014a.851.851 0 0 1-.372.457 1.016 1.016 0 0 1-.585.186h-2.329c-.4 0-.738-.138-1.014-.414a1.38 1.38 0 0 1-.415-1.015v-2.957c0-.4.139-.738.415-1.014a1.378 1.378 0 0 1 1.014-.414h3.214v-1.5c0-.238-.119-.357-.357-.357h-3.928V6.357Z" fill="#fff"/></svg>