<svg xmlns="http://www.w3.org/2000/svg" xmlns:xlink="http://www.w3.org/1999/xlink"><symbol id="icon-apple"><path d="M.88 13.44C.88 6.547 6.467.96 13.36.96c6.892 0 12.48 5.587 12.48 12.48 0 6.893-5.588 12.48-12.48 12.48C6.467 25.92.88 20.332.88 13.44Z" fill="#fff"/><path fill-rule="evenodd" clip-rule="evenodd" d="M16.099 5.952c.13.887-.23 1.757-.707 2.372-.51.66-1.389 1.17-2.24 1.143-.155-.85.242-1.725.727-2.313.53-.65 1.441-1.148 2.22-1.202Zm2.558 12.491c.438-.673.602-1.012.943-1.771-2.478-.943-2.875-4.466-.423-5.818-.748-.938-1.799-1.482-2.791-1.482-.715 0-1.205.187-1.65.356-.372.142-.712.271-1.126.271-.447 0-.843-.142-1.257-.29-.456-.164-.934-.335-1.527-.335-1.114 0-2.3.68-3.05 1.843-1.057 1.639-.877 4.718.836 7.342.613.94 1.43 1.994 2.5 2.003.445.005.74-.128 1.06-.271.366-.164.763-.343 1.452-.346.693-.004 1.084.176 1.445.343.312.143.6.277 1.041.272 1.07-.009 1.934-1.178 2.547-2.117Z" fill="#0B0B0A"/></symbol><symbol id="icon-arrow"><path d="M1.232 17.232a2.5 2.5 0 0 0 0 3.536l15.91 15.91a2.5 2.5 0 0 0 3.536-3.536L6.536 19 20.678 4.858a2.5 2.5 0 0 0-3.536-3.536l-15.91 15.91ZM4 16.5H3v5h1v-5Z"/></symbol><symbol id="icon-discord" viewBox="0 -28.5 256 256" preserveAspectRatio="xMidYMid"><path d="M216.856 16.597A208.502 208.502 0 0 0 164.042 0c-2.275 4.113-4.933 9.645-6.766 14.046-19.692-2.961-39.203-2.961-58.533 0-1.832-4.4-4.55-9.933-6.846-14.046a207.809 207.809 0 0 0-52.855 16.638C5.618 67.147-3.443 116.4 1.087 164.956c22.169 16.555 43.653 26.612 64.775 33.193A161.094 161.094 0 0 0 79.735 175.3a136.413 136.413 0 0 1-21.846-10.632 108.636 108.636 0 0 0 5.356-4.237c42.122 19.702 87.89 19.702 129.51 0a131.66 131.66 0 0 0 5.355 4.237 136.07 136.07 0 0 1-21.886 10.653c4.006 8.02 8.638 15.67 13.873 22.848 21.142-6.58 42.646-16.637 64.815-33.213 5.316-56.288-9.08-105.09-38.056-148.36ZM85.474 135.095c-12.645 0-23.015-11.805-23.015-26.18s10.149-26.2 23.015-26.2c12.867 0 23.236 11.804 23.015 26.2.02 14.375-10.148 26.18-23.015 26.18Zm85.051 0c-12.645 0-23.014-11.805-23.014-26.18s10.148-26.2 23.014-26.2c12.867 0 23.236 11.804 23.015 26.2 0 14.375-10.148 26.18-23.015 26.18Z"/></symbol><symbol id="icon-facebook"><path d="M.88 12.48C.88 5.587 6.467 0 13.36 0c6.892 0 12.48 5.587 12.48 12.48 0 6.892-5.588 12.48-12.48 12.48C6.467 24.96.88 19.372.88 12.48Z" fill="#3B5998"/><path d="M14.66 19.818v-6.79h1.875l.248-2.34h-2.122l.003-1.17c0-.611.058-.938.934-.938h1.172V6.24h-1.875c-2.251 0-3.044 1.135-3.044 3.044v1.405h-1.403v2.34h1.403v6.789h2.81Z" fill="#fff"/></symbol><symbol id="icon-google"><path d="M.84 12.48C.84 5.587 6.427 0 13.32 0 20.212 0 25.8 5.587 25.8 12.48c0 6.892-5.588 12.48-12.48 12.48C6.427 24.96.84 19.372.84 12.48Z" fill="#fff"/><path d="M13.32 9.163c1.015 0 1.7.439 2.09.805l1.527-1.49c-.938-.871-2.157-1.406-3.618-1.406a5.404 5.404 0 0 0-4.83 2.98l1.748 1.358c.438-1.303 1.652-2.247 3.082-2.247Z" fill="#EA4335"/><path d="M18.512 12.6c0-.444-.037-.769-.115-1.105H13.32v2.007h2.98c-.06.498-.384 1.25-1.105 1.754l1.706 1.322c1.022-.943 1.61-2.331 1.61-3.978Z" fill="#4285F4"/><path d="M10.243 13.55a3.329 3.329 0 0 1-.18-1.07c0-.373.066-.733.174-1.07l-1.749-1.357a5.413 5.413 0 0 0-.576 2.427c0 .871.21 1.695.576 2.428l1.755-1.358Z" fill="#FBBC05"/><path d="M13.32 17.888c1.46 0 2.686-.48 3.581-1.31l-1.707-1.322c-.456.319-1.069.54-1.874.54-1.43 0-2.644-.942-3.077-2.246l-1.748 1.358a5.395 5.395 0 0 0 4.825 2.98Z" fill="#34A853"/></symbol><symbol id="icon-mail-ru"><path d="M0 12.48C0 5.587 5.587 0 12.48 0c6.892 0 12.48 5.587 12.48 12.48 0 6.892-5.588 12.48-12.48 12.48C5.587 24.96 0 19.372 0 12.48Z" fill="#005FF9"/><path fill-rule="evenodd" clip-rule="evenodd" d="M5.2 12.46c0-4.004 3.266-7.26 7.28-7.26s7.28 3.256 7.28 7.26a6.41 6.41 0 0 1-.153 1.486l-.002.008c0 .001-.053.214-.082.306-.18.574-.506 1.052-.942 1.382a2.463 2.463 0 0 1-1.673.49 2.368 2.368 0 0 1-1.82-1.085 3.681 3.681 0 0 1-6.291-2.588 3.681 3.681 0 0 1 3.683-3.672 3.681 3.681 0 0 1 3.682 3.672v1.184c.004.69.468.973.865 1.005.395.03.921-.2 1.104-.948.09-.41.136-.828.136-1.24 0-3.183-2.596-5.772-5.787-5.772s-5.787 2.59-5.787 5.771c0 3.183 2.596 5.771 5.787 5.771 1.11 0 2.191-.316 3.124-.915l.017-.01.98 1.137-.02.014a7.252 7.252 0 0 1-4.1 1.263c-4.015 0-7.28-3.257-7.28-7.26Zm7.28 2.183a2.19 2.19 0 0 0 2.19-2.184 2.19 2.19 0 0 0-4.38 0 2.19 2.19 0 0 0 2.19 2.184Z" fill="#FF9E00"/></symbol><symbol id="icon-ok"><path d="M.92 12.48C.92 5.587 6.507 0 13.4 0c6.892 0 12.48 5.587 12.48 12.48 0 6.892-5.588 12.48-12.48 12.48C6.507 24.96.92 19.372.92 12.48Z" fill="#F68634"/><path d="m14.75 15.309 1.865 1.8a.92.92 0 0 1 0 1.335c-.382.368-1 .368-1.382 0l-1.834-1.77-1.832 1.77a.994.994 0 0 1-.691.276c-.25 0-.5-.092-.691-.276a.92.92 0 0 1 0-1.335l1.865-1.8a6.388 6.388 0 0 1-1.938-.774.925.925 0 0 1-.306-1.302.997.997 0 0 1 1.348-.296c1.366.829 3.125.83 4.492 0a.997.997 0 0 1 1.347.296.925.925 0 0 1-.306 1.301 6.377 6.377 0 0 1-1.937.775Z" fill="#fff"/><path fill-rule="evenodd" clip-rule="evenodd" d="M10.055 9.46c0 1.776 1.497 3.22 3.337 3.22s3.336-1.444 3.336-3.22c0-1.775-1.496-3.22-3.337-3.22-1.84 0-3.336 1.445-3.336 3.22Zm4.718 0c0-.735-.62-1.333-1.381-1.333-.762 0-1.382.598-1.382 1.334 0 .734.62 1.333 1.382 1.333.761 0 1.38-.599 1.38-1.333Z" fill="#fff"/></symbol><symbol id="icon-twitch"><path d="M13.44 25.92c6.893 0 12.48-5.588 12.48-12.48C25.92 6.547 20.332.96 13.44.96 6.547.96.96 6.547.96 13.44c0 6.893 5.587 12.48 12.48 12.48Z" fill="#F1F1F1"/><path fill-rule="evenodd" clip-rule="evenodd" d="m6.396 9.389.976-2.605h13.346V15.9l-3.907 3.906h-2.93L11.93 21.76H9.975v-1.954h-3.58V9.389Zm13.02-1.304H8.673v9.442h2.932v1.952l1.951-1.952h3.58l2.28-2.279V8.085Z" fill="#6441A5"/><path fill-rule="evenodd" clip-rule="evenodd" d="M13.556 14.598h-1.302V10.69h1.303v3.907Zm3.58 0h-1.301V10.69h1.302v3.907Z" fill="#6441A5"/></symbol><symbol id="icon-twitter"><path d="M.92 13.44C.92 6.547 6.507.96 13.4.96c6.892 0 12.48 5.587 12.48 12.48 0 6.893-5.588 12.48-12.48 12.48C6.507 25.92.92 20.332.92 13.44Z" fill="#55ACEE"/><path d="m13.026 11.104.027.432-.437-.053c-1.589-.203-2.977-.89-4.155-2.045l-.576-.573-.149.423c-.314.943-.113 1.94.542 2.61.349.37.27.422-.332.202-.21-.07-.393-.124-.41-.097-.062.062.148.864.314 1.18.227.441.69.873 1.196 1.129l.427.203-.506.008c-.489 0-.506.01-.454.194.175.573.864 1.181 1.633 1.446l.54.185-.47.282a4.915 4.915 0 0 1-2.34.652c-.393.009-.716.044-.716.07 0 .088 1.065.582 1.685.776 1.86.573 4.068.326 5.726-.652 1.179-.697 2.357-2.08 2.907-3.42.297-.714.594-2.018.594-2.644 0-.405.026-.458.515-.943.288-.282.559-.59.611-.678.087-.168.079-.168-.367-.018-.741.264-.846.23-.48-.167.271-.282.594-.793.594-.943 0-.027-.131.017-.28.097a4.87 4.87 0 0 1-.768.3l-.471.15-.428-.292c-.235-.158-.567-.335-.742-.387-.445-.124-1.126-.106-1.527.035-1.092.396-1.781 1.419-1.703 2.538Z" fill="#fff"/></symbol><symbol id="icon-vk"><path d="M.96 12.48C.96 5.587 6.547 0 13.44 0c6.893 0 12.48 5.587 12.48 12.48 0 6.892-5.588 12.48-12.48 12.48C6.547 24.96.96 19.372.96 12.48Z" fill="#4C6C91"/><path d="M14.093 16.576s.24-.027.363-.156c.113-.12.11-.344.11-.344s-.016-1.047.48-1.202c.488-.152 1.115 1.013 1.78 1.461.503.339.884.265.884.265l1.779-.024s.93-.057.489-.774c-.037-.06-.258-.531-1.322-1.502-1.115-1.015-.966-.851.377-2.608.818-1.07 1.144-1.723 1.042-2.002-.097-.267-.698-.196-.698-.196l-2.002.012s-.148-.02-.258.044c-.108.064-.177.211-.177.211s-.317.828-.74 1.532c-.89 1.486-1.247 1.564-1.393 1.472-.339-.215-.254-.864-.254-1.325 0-1.44.222-2.04-.433-2.195-.218-.052-.378-.086-.935-.091-.714-.007-1.318.002-1.66.166-.228.11-.404.354-.297.368.132.017.432.08.59.291.206.275.199.89.199.89s.117 1.694-.276 1.905c-.27.144-.64-.15-1.434-1.499a12.43 12.43 0 0 1-.714-1.453s-.06-.142-.166-.22c-.128-.092-.307-.12-.307-.12l-1.902.012s-.286.007-.39.13c-.094.107-.008.332-.008.332s1.49 3.42 3.176 5.143c1.546 1.58 3.301 1.477 3.301 1.477h.796Z" fill="#fff"/></symbol><symbol id="icon-vkontakte"><path d="M23.456 5.784a8.605 8.605 0 0 1-1.09 2.259l.019-.03q-.672 1.12-1.605 2.588-.8 1.159-.847 1.2a1.28 1.28 0 0 0-.267.618l-.001.007a.897.897 0 0 0 .268.535l.4.446q3.21 3.299 3.611 4.548a.89.89 0 0 1-.112.829l.002-.003a.965.965 0 0 1-.784.289h.004H20.418c-.337 0-.647-.118-.89-.314l.003.002a6.928 6.928 0 0 1-.951-.948l-.009-.012q-.691-.781-1.226-1.315-1.782-1.694-2.63-1.694a.788.788 0 0 0-.516.135l.003-.002a.767.767 0 0 0-.16.584v-.004a12.532 12.532 0 0 0-.038 1.403v-.017 1.159a.78.78 0 0 1-.266.757l-.001.001a3.179 3.179 0 0 1-1.617.267l.013.001a8.323 8.323 0 0 1-4.275-1.268l.035.02A11.931 11.931 0 0 1 4.176 14.3l-.027-.042a26.36 26.36 0 0 1-2.471-3.992l-.07-.154A24.657 24.657 0 0 1 .375 7.31l-.06-.185a6.646 6.646 0 0 1-.31-1.535l-.002-.025q0-.758.892-.758h2.63a1.058 1.058 0 0 1 .739.225l-.002-.002c.2.219.348.488.421.788l.003.012a25.422 25.422 0 0 0 1.587 3.615l-.067-.137a14.56 14.56 0 0 0 1.623 2.576l-.023-.031q.8.982 1.248.982l.032.001a.4.4 0 0 0 .347-.2l.001-.002a1.783 1.783 0 0 0 .111-.787v.006-3.879a3.211 3.211 0 0 0-.32-1.267l.008.019a2.956 2.956 0 0 0-.45-.695l.003.004a1.099 1.099 0 0 1-.311-.619l-.001-.006c0-.17.078-.323.2-.423l.001-.001a.678.678 0 0 1 .46-.178h4.154a.634.634 0 0 1 .559.222l.001.001a1.36 1.36 0 0 1 .159.763v-.005 5.173a.993.993 0 0 0 .136.584l-.002-.004a.401.401 0 0 0 .333.178h.001a.946.946 0 0 0 .471-.162l-.003.002c.272-.187.506-.4.709-.641l.004-.005a15.606 15.606 0 0 0 1.655-2.25l.039-.07c.344-.57.716-1.272 1.053-1.993l.062-.147.446-.892a1.122 1.122 0 0 1 1.117-.759h-.003 2.631q1.066 0 .8.981z"/></symbol><symbol id="icon-youtube"><path d="m16.592 8.793-5.236-3.491a.655.655 0 0 0-1.015.545v6.982a.654.654 0 0 0 1.015.546l5.236-3.491a.654.654 0 0 0 0-1.091Zm-4.942 2.814V7.07l3.404 2.27-3.404 2.268Zm12.48-8.563a2.4 2.4 0 0 0-1.45-1.637C18.96-.022 12.991 0 12.74 0c-.25 0-6.218-.022-9.938 1.407a2.4 2.4 0 0 0-1.45 1.637C1.067 4.113.74 6.076.74 9.338c0 3.262.327 5.226.611 6.295a2.4 2.4 0 0 0 1.451 1.636c3.72 1.43 9.687 1.407 9.938 1.407h.077c.752 0 6.316-.043 9.861-1.407a2.4 2.4 0 0 0 1.451-1.636c.284-1.07.611-3.033.611-6.295s-.327-5.225-.61-6.294Zm-1.265 12.261a1.09 1.09 0 0 1-.655.742c-3.49 1.342-9.403 1.32-9.469 1.32-.065 0-5.978.022-9.469-1.32a1.09 1.09 0 0 1-.654-.742c-.262-1.003-.568-2.847-.568-5.967 0-3.12.306-4.963.568-5.967a1.09 1.09 0 0 1 .654-.742c3.491-1.342 9.404-1.32 9.47-1.32.065 0 5.977-.022 9.468 1.32a1.092 1.092 0 0 1 .655.742c.262 1.004.567 2.847.567 5.967 0 3.12-.305 4.964-.567 5.968Z"/></symbol></svg>